# xmcd
#
# Track frame offsets:
#	182
#	15125
#	28635
#	44032
#	55592
#	72410
#	86022
#	100442
#	111000
#	127380
#
# Disc length: 1891 seconds
#
# Revision: 5
# Processed by: cddbd v1.4PL0 Copyright (c) Steve Scherf et al.
# Submitted via: audiograbber 1.80
#
DISCID=8607610a
DTITLE=Donna Fargo - Winners
DYEAR=1900
DGENRE=
TTITLE0=Woman Of The 80's
TTITLE1=Funny Face
TTITLE2=Members Only
TTITLE3=Happiest Girl In The Whole U.S.A.
TTITLE4=Sign Of The Times
TTITLE5=Winners
TTITLE6=Me And You
TTITLE7=Little Girl Gone
TTITLE8=U.S. of A.
TTITLE9=You Were Always There
EXTD=
EXTT0=
EXTT1=
EXTT2=
EXTT3=
EXTT4=
EXTT5=
EXTT6=
EXTT7=
EXTT8=
EXTT9=
PLAYORDER=
